 http://www.imdb.com/title/tt1230194/
 
http://www.moviemeter.nl/film/54085

Storm, De (2009) Alternatieve titel: The Storm 

User Rating:6.5/10 - 310 votes

Nederland
Drama
96 minuten

Geregisseerd door Ben Sombogaart
Met Sylvia Hoeks, Barry Atsma en Monic Hendrickx

De Storm gaat over Julia (Sylvia Hoeks), een 18-jarige Zeeuwse boerendochter, die zwanger raakt van haar vriendje Koos, een vissersjongen. Koos schrikt zo van dit nieuws dat hij met de Noorderzon vertrekt. Julia staat er helemaal alleen voor in een vijandig dorp: de zwangerschap en de bevalling worden eerst veroordeeld en later genegeerd door haar famile en dorpsgenoten. In de nacht van 31 januari 1953 breken de dijken in Zeeland tijdens een verschrikkelijke februaristorm op meer dan honderd plaatsen en wordt de boerderij verzwolgen door een zondvloed. Julia komt samen met haar zoon in het water terecht en wordt - tegen haar wil - gered door de jonge luchtmachtsergeant Aldo (Barry Atsma), haar baby in het water achterlatend. Ze is ontroostbaar, hult zich in stilzwijgen en weigert met haar gehate redder te praten. Voorzichtig probeert Aldo in contact te komen met de jonge vrouw, ontrafelt stukje bij beetje haar achtergrond en besluit tenslotte om haar te helpen haar zoon te vinden.

Info:

Cover bijgesloten.

General
Complete name                    : De Storm-AC3-5,1-DVDRip-2009-Nederlands.avi
Format                           : AVI
Format/Info                      : Audio Video Interleave
File size                        : 1.36 GiB
Duration                         : 1h 32mn
Overall bit rate                 : 2 098 Kbps
Writing application              : VirtualDubMod 1.5.4.1 (build 2178/release)
Writing library                  : VirtualDubMod build 2178/release

Video
ID                               : 0
Format                           : MPEG-4 Visual
Format profile                   : Simple@L3
Format settings, BVOP            : No
Format settings, QPel            : No
Format settings, GMC             : No warppoints
Format settings, Matrix          : Default (H.263)
Codec ID                         : XVID
Codec ID/Hint                    : XviD
Duration                         : 1h 32mn
Bit rate                         : 1 641 Kbps
Width                            : 640 pixels
Height                           : 272 pixels
Display aspect ratio             : 2.35:1
Frame rate                       : 25.000 fps
Resolution                       : 24 bits
Colorimetry                      : 4:2:0
Scan type                        : Progressive
Bits/(Pixel*Frame)               : 0.377
Stream size                      : 1.06 GiB (78%)
Writing library                  : XviD 1.1.2 (UTC 2006-11-01)

Audio
ID                               : 1
Format                           : AC-3
Format/Info                      : Audio Coding 3
Codec ID                         : 2000
Duration                         : 1h 32mn
Bit rate mode                    : Constant
Bit rate                         : 448 Kbps
Channel(s)                       : 6 channels
Channel positions                : Front: L C R, Surround: L R, LFE
Sampling rate                    : 48.0 KHz
Stream size                      : 297 MiB (21%)
Alignment                        : Split accross interleaves
Interleave, duration             : 40 ms (1.00 video frame)
Interleave, preload duration     : 500 ms

Veel plezier met deze film.